<svg xmlns="http://www.w3.org/2000/svg" width="20" height="20" viewBox="0 0 20 20"><path d="M13.747,0C17.59,0,20,2.392,20,6.253h0V8.575l-.007.1a.765.765,0,0,1-.758.661h-.009l-.121-.01a.756.756,0,0,1-.635-.764h0V6.253c0-3.043-1.68-4.723-4.723-4.723H6.253C3.2,1.53,1.53,3.21,1.53,6.253h0v7.5c0,3.043,1.68,4.714,4.723,4.714h7.493c3.052,0,4.723-1.68,4.723-4.714a.765.765,0,1,1,1.53,0C20,17.608,17.608,20,13.755,20h-7.5C2.392,20,0,17.608,0,13.755H0v-7.5C0,2.392,2.392,0,6.253,0h7.493ZM5.752,7.555a.765.765,0,0,1,.739.792h0v6.394a.766.766,0,0,1-1.53-.053h0v-6.4l.014-.12a.756.756,0,0,1,.778-.61Zm4.283-3a.765.765,0,0,1,.765.765h0V14.7a.765.765,0,0,1-1.53,0h0V5.321A.765.765,0,0,1,10.035,4.556Zm4.239,6.376a.765.765,0,0,1,.765.765h0v2.99a.765.765,0,0,1-1.53,0h0V11.7A.765.765,0,0,1,14.274,10.932Z" fill="#fff"/></svg>