<svg xmlns="http://www.w3.org/2000/svg" width="19" height="19" viewBox="0 0 19 19"><g transform="translate(4055 -561)"><path d="M8.5,3h-3a2.5,2.5,0,0,0,0,5h3a2.5,2.5,0,0,0,0-5Zm0,4h-3a1.5,1.5,0,1,1,0-3h3a1.5,1.5,0,0,1,0,3Zm0,3h-3A2.5,2.5,0,0,0,3,12.5v6A2.5,2.5,0,0,0,5.5,21h3A2.5,2.5,0,0,0,11,18.5v-6A2.5,2.5,0,0,0,8.5,10ZM10,18.5A1.5,1.5,0,0,1,8.5,20h-3A1.5,1.5,0,0,1,4,18.5v-6A1.5,1.5,0,0,1,5.5,11h3A1.5,1.5,0,0,1,10,12.5ZM18.5,16h-3a2.5,2.5,0,0,0,0,5h3a2.5,2.5,0,1,0,0-5Zm0,4h-3a1.5,1.5,0,0,1,0-3h3a1.5,1.5,0,0,1,0,3Zm0-17h-3A2.5,2.5,0,0,0,13,5.5v6A2.5,2.5,0,0,0,15.5,14h3A2.5,2.5,0,0,0,21,11.5v-6A2.5,2.5,0,0,0,18.5,3ZM20,11.5A1.5,1.5,0,0,1,18.5,13h-3A1.5,1.5,0,0,1,14,11.5v-6A1.5,1.5,0,0,1,15.5,4h3A1.5,1.5,0,0,1,20,5.5Z" transform="translate(-4057.5 558.5)" fill="#fff"/><path d="M5.5,2.5h3a3,3,0,1,1,0,6h-3a3,3,0,0,1,0-6Zm3,4a1,1,0,0,0,0-2h-3a1,1,0,0,0,0,2Zm0,1h-3a2,2,0,0,1-2-2,2,2,0,0,0,2,2h3a2,2,0,0,0,2-2A2,2,0,0,1,8.5,7.5Zm7-5h3a3,3,0,0,1,3,3v6a3,3,0,0,1-3,3h-3a3,3,0,0,1-3-3v-6A3,3,0,0,1,15.5,2.5Zm3,10a1,1,0,0,0,1-1v-6a1,1,0,0,0-1-1h-3a1,1,0,0,0-1,1v6a1,1,0,0,0,1,1Zm0,1a2,2,0,0,0,2-2v0a2,2,0,0,1-2,2h-3a2,2,0,0,1-2-2,2,2,0,0,0,2,2Zm-13-4h3a3,3,0,0,1,3,3v6a3,3,0,0,1-3,3h-3a3,3,0,0,1-3-3v-6A3,3,0,0,1,5.5,9.5Zm3,10a1,1,0,0,0,1-1v-6a1,1,0,0,0-1-1h-3a1,1,0,0,0-1,1v6a1,1,0,0,0,1,1Zm0,1a2,2,0,0,0,2-2v0a2,2,0,0,1-2,2h-3a2,2,0,0,1-2-2,2,2,0,0,0,2,2Zm7-5h3a3,3,0,0,1,0,6h-3a3,3,0,0,1,0-6Zm3,4a1,1,0,0,0,0-2h-3a1,1,0,0,0,0,2Zm0,1h-3a2,2,0,0,1-2-2,2,2,0,0,0,2,2h3a2,2,0,0,0,2-2A2,2,0,0,1,18.5,20.5Z" transform="translate(-4057.5 558.5)" fill="#fff"/></g></svg>