<svg xmlns="http://www.w3.org/2000/svg" width="19.297" height="22.805" viewBox="0 0 19.297 22.805"><path d="M15.328,7.348a7.925,7.925,0,0,1,1.311.246A5.587,5.587,0,0,1,20.9,13.067v7l.511.513.427.429H8.711l.427-.429.511-.513v-7a5.587,5.587,0,0,1,4.258-5.474,9.7,9.7,0,0,1,1.311-.246m.055-3.973a1.676,1.676,0,0,0-1.7,1.71v.8A7.391,7.391,0,0,0,7.9,13.067v6.271l-2.27,2.281v1.14h19.3v-1.14l-2.27-2.281V13.067a7.391,7.391,0,0,0-5.675-7.184v-.8a1.676,1.676,0,0,0-1.7-1.71ZM17.543,23.9H13a2.27,2.27,0,1,0,4.54,0Z" transform="translate(-5.625 -3.375)" fill="#fff"/></svg>