<svg xmlns="http://www.w3.org/2000/svg" width="19.677" height="19.677" viewBox="0 0 19.677 19.677"><path d="M16.764,16.768H13.85V12.2c0-1.089-.022-2.49-1.518-2.49-1.519,0-1.751,1.185-1.751,2.41v4.646H7.667V7.379h2.8v1.28H10.5a3.071,3.071,0,0,1,2.763-1.517c2.952,0,3.5,1.943,3.5,4.472v5.154ZM4.376,6.094A1.692,1.692,0,1,1,6.068,4.4,1.691,1.691,0,0,1,4.376,6.094ZM5.837,16.768H2.915V7.379H5.837ZM18.222,0H1.452A1.435,1.435,0,0,0,0,1.418V18.26a1.434,1.434,0,0,0,1.452,1.418H18.22a1.44,1.44,0,0,0,1.458-1.418V1.418A1.44,1.44,0,0,0,18.22,0Z" fill="#0965c1"/></svg>