<svg xmlns="http://www.w3.org/2000/svg" width="21.818" height="19.594" viewBox="0 0 21.818 19.594"><path d="M16.5,17.376H6.927a3.481,3.481,0,0,0,0,6.962H16.5a3.481,3.481,0,0,0,0-6.962Zm1.227,4.708A1.74,1.74,0,0,1,16.5,22.6H6.927a1.74,1.74,0,1,1,0-3.481H16.5a1.74,1.74,0,0,1,1.227,2.967Zm-6.013-6.448c6.883-.218,6.883-10.2,0-10.442-6.909.244-6.909,10.216,0,10.442Zm0-8.7a3.481,3.481,0,1,1,0,6.962,3.481,3.481,0,0,1,0-6.935Zm10.181,3.289a3.046,3.046,0,0,1-2.35,3.011.87.87,0,0,1-.3-1.679,1.436,1.436,0,0,0,0-2.611.87.87,0,0,1,.609-1.627,3.15,3.15,0,0,1,2.045,2.933Zm3.411,0c0,2.141-1.175,4.76-3.263,5.508a.87.87,0,0,1-.5-1.575,4.856,4.856,0,0,0,0-7.832.873.873,0,0,1,1.018-1.418,6.561,6.561,0,0,1,2.75,5.343Z" transform="translate(-3.488 -4.744)" fill="#566a7f"/></svg>