<svg xmlns="http://www.w3.org/2000/svg" width="21.766" height="20.3" viewBox="0 0 21.766 20.3"><g transform="translate(4058.635 -653.9)"><path d="M40.453,27.478H36.3C36.08,25.491,34.863,24,33.323,24H30.043a2.676,2.676,0,0,0-2.211,1.292,4.523,4.523,0,0,0-.77,2.186H22.913A1.941,1.941,0,0,0,21,29.441v12.5A1.941,1.941,0,0,0,22.913,43.9h17.54a1.941,1.941,0,0,0,1.913-1.963v-12.5A1.925,1.925,0,0,0,40.453,27.478ZM33.3,33.192h-3.23A1.412,1.412,0,0,0,28.7,34.633v.72c-4.223-.969-6.161-1.838-6.459-2.236V29.64a.726.726,0,0,1,.77-.671H40.353a.726.726,0,0,1,.77.671v3.453c-.3.4-2.236,1.267-6.459,2.261v-.72A1.412,1.412,0,0,0,33.3,33.192Zm.025,1.242a.107.107,0,0,1,.1.1v1.615a1.634,1.634,0,0,1-1.59,1.665,1.671,1.671,0,0,1-1.64-1.714v-1.54a.107.107,0,0,1,.1-.1h3.031Zm-4.472-8.2a1.6,1.6,0,0,1,1.193-.745h3.279c.845,0,1.565.969,1.739,2.236H28.3A3.449,3.449,0,0,1,28.851,26.236Zm11.627,16.4H22.888a.658.658,0,0,1-.646-.646V34.559A28.811,28.811,0,0,0,28.8,36.546a2.968,2.968,0,0,0,2.932,2.534,2.918,2.918,0,0,0,2.882-2.534,28.017,28.017,0,0,0,6.534-1.988v7.428A.7.7,0,0,1,40.478,42.633Z" transform="translate(-4079.435 630.1)" fill="#fff"/><path d="M30.043,23.8h3.279a2.8,2.8,0,0,1,2.137,1.065,4.817,4.817,0,0,1,1.02,2.413h3.973a2.116,2.116,0,0,1,2.113,2.163v12.5A2.141,2.141,0,0,1,40.453,44.1H22.913A2.141,2.141,0,0,1,20.8,41.937v-12.5a2.141,2.141,0,0,1,2.113-2.163h3.97a4.7,4.7,0,0,1,.786-2.1A2.862,2.862,0,0,1,30.043,23.8Zm10.41,19.9a1.74,1.74,0,0,0,1.713-1.763v-12.5a1.72,1.72,0,0,0-1.713-1.763H36.125l-.02-.178c-.215-1.912-1.385-3.3-2.783-3.3H30.043A2.477,2.477,0,0,0,28,25.4a4.34,4.34,0,0,0-.737,2.092l-.017.182H22.913A1.74,1.74,0,0,0,21.2,29.441v12.5A1.74,1.74,0,0,0,22.913,43.7ZM30.043,25.291h3.279c.931,0,1.746,1.013,1.937,2.409l.031.227H28.076l.029-.226a3.668,3.668,0,0,1,.58-1.578l0,0A1.8,1.8,0,0,1,30.043,25.291Zm4.782,2.236c-.21-1.061-.833-1.836-1.5-1.836H30.043a1.418,1.418,0,0,0-1.029.661,3.182,3.182,0,0,0-.475,1.175ZM23.012,28.769H40.353a.926.926,0,0,1,.97.871v3.52l-.04.053c-.331.442-2.252,1.319-6.574,2.335l-.246.058v-.973A1.207,1.207,0,0,0,33.3,33.392h-3.23A1.207,1.207,0,0,0,28.9,34.633V35.6l-.245-.056c-4.316-.99-6.239-1.864-6.575-2.311l-.04-.053V29.64A.926.926,0,0,1,23.012,28.769Zm17.911,4.249V29.64a.528.528,0,0,0-.57-.471H23.012a.528.528,0,0,0-.57.471v3.4c.3.28,1.816,1.071,6.059,2.061v-.469a1.607,1.607,0,0,1,1.566-1.641H33.3a1.607,1.607,0,0,1,1.566,1.641V35.1C38.715,34.179,40.556,33.375,40.924,33.018Zm.425,1.211V42a.9.9,0,0,1-.87.832H22.888a.857.857,0,0,1-.846-.846V34.232l.291.149a29.63,29.63,0,0,0,6.51,1.97l.134.029.021.136a2.764,2.764,0,0,0,2.734,2.365,2.731,2.731,0,0,0,2.684-2.361l.019-.139.137-.03a28.757,28.757,0,0,0,6.484-1.969ZM28.627,36.713a32.177,32.177,0,0,1-6.185-1.835v7.108a.458.458,0,0,0,.446.446h17.59a.5.5,0,0,0,.471-.454v-7.1a31.412,31.412,0,0,1-6.158,1.831,3.133,3.133,0,0,1-6.163,0Zm4.5-2.479h.2a.307.307,0,0,1,.3.3v1.615a1.83,1.83,0,0,1-1.79,1.865,1.88,1.88,0,0,1-1.84-1.914v-1.54a.307.307,0,0,1,.3-.3h2.831Zm.1.425h-2.83V36.1a1.48,1.48,0,0,0,1.44,1.514,1.43,1.43,0,0,0,1.39-1.465Z" transform="translate(-4079.435 630.1)" fill="#fff"/></g></svg>