<svg xmlns="http://www.w3.org/2000/svg" width="20" height="20" viewBox="0 0 20 20"><g transform="translate(-2 -2)"><path d="M14.571,11a3.571,3.571,0,1,0,3.571,3.571A3.571,3.571,0,0,0,14.571,11Zm-2.143,3.571a2.143,2.143,0,1,1,2.143,2.143A2.143,2.143,0,0,1,12.429,14.571Z" transform="translate(-2.571 -2.571)" fill="#566a7f" fill-rule="evenodd"/><path d="M12.882,2.187a2.172,2.172,0,0,0-1.764,0L5.7,4.6A2.172,2.172,0,0,0,4.6,5.7L2.187,11.118a2.172,2.172,0,0,0,0,1.764L4.6,18.3a2.172,2.172,0,0,0,1.1,1.1l5.419,2.409a2.172,2.172,0,0,0,1.764,0L18.3,19.4a2.172,2.172,0,0,0,1.1-1.1l2.409-5.419a2.172,2.172,0,0,0,0-1.764L19.4,5.7a2.172,2.172,0,0,0-1.1-1.1ZM11.706,3.51a.724.724,0,0,1,.588,0l5.419,2.409a.724.724,0,0,1,.368.368l2.409,5.419a.724.724,0,0,1,0,.588l-2.409,5.419a.724.724,0,0,1-.368.368l-5.419,2.409a.724.724,0,0,1-.588,0L6.287,18.081a.724.724,0,0,1-.368-.368L3.51,12.294a.724.724,0,0,1,0-.588L5.919,6.287a.724.724,0,0,1,.368-.368Z" transform="translate(0 0)" fill="#566a7f" fill-rule="evenodd"/></g></svg>